<?xml version="1.0" encoding="utf-8"?>
<!-- Generator: Adobe Illustrator 21.0.0, SVG Export Plug-In . SVG Version: 6.00 Build 0)  -->
<svg version="1.1" id="Layer_1" xmlns="http://www.w3.org/2000/svg" xmlns:xlink="http://www.w3.org/1999/xlink" x="0px" y="0px"
	 viewBox="0 0 100 100" style="enable-background:new 0 0 100 100;" xml:space="preserve">
<style type="text/css">
	.st0{fill:#FFFFFF;}
</style>
<path class="st0" d="M80.7,99.7c2.2,0,4-0.2,5.5-0.3l1-0.1l0.6-0.8c6-8.4,7.5-18.9,7.7-26.3l0-1.1l-0.8-0.7
	C87.3,63.6,74.8,58.9,64.9,59l-0.8,0l-0.6,0.5c-2.6,1.9-7,6.6-9.6,9.7c-3.7-1.8-8.2-6-13.3-12.2c-5.2-6.3-8.3-11.5-9.4-15.5
	c3.6-1.9,9-5.4,11.4-7.5l0.6-0.5l0.2-0.8c2-9.6-0.2-22.8-5.3-31.4l-0.6-1l-1.1-0.2c-6.2-1-20-0.5-29.7,3.9L5.8,4.5l-0.3,1
	C1.1,18.3,4.5,42,26.8,70.2C48.4,95.5,69.1,99.7,80.7,99.7z M9.7,8c8.4-3.5,19.5-3.9,24.8-3.3c3.9,7.3,5.7,18.2,4.3,26.2
	c-2.8,2.2-8.6,5.9-11.3,7l-1.6,0.7l0.2,1.8C26.8,45.6,30.3,52,36.9,60s12.2,12.7,17,14.4l1.7,0.6l1-1.5c1.6-2.4,6.3-7.4,9.1-9.7
	c8.1,0.2,18.5,4,24.9,9.3c-0.3,6.4-1.7,14.9-6.2,21.7c-9.2,0.9-30.9-0.5-54-27.6C10,41.3,6.5,19.4,9.7,8z"/>
</svg>
