<?xml version="1.0" encoding="utf-8"?>
<!-- Generator: Adobe Illustrator 21.0.0, SVG Export Plug-In . SVG Version: 6.00 Build 0)  -->
<svg version="1.1" id="Layer_1" xmlns="http://www.w3.org/2000/svg" xmlns:xlink="http://www.w3.org/1999/xlink" x="0px" y="0px"
	 viewBox="0 0 200 200" style="enable-background:new 0 0 200 200;" xml:space="preserve">
<style type="text/css">
	.st0{fill:#FFFFFF;}
	.st1{fill:#151515;stroke:#151515;stroke-width:4;stroke-miterlimit:10;}
</style>
<g>
	<circle class="st0" cx="100" cy="100" r="100"/>
</g>
<path class="st1" d="M123,137.1c1.6,0,3-0.1,4.1-0.2l0.7-0.1l0.4-0.6c4.5-6.2,5.6-14,5.7-19.5v-0.8l-0.6-0.5
	c-5.5-5-14.8-8.5-22.1-8.5h-0.6l-0.4,0.4c-1.9,1.4-5.2,4.9-7.1,7.2c-2.7-1.3-6.1-4.5-9.9-9.1c-3.9-4.7-6.2-8.5-7-11.5
	c2.7-1.4,6.7-4,8.5-5.6l0.4-0.4l0.1-0.6c1.5-7.1-0.1-16.9-3.9-23.3L91,63.4l-0.8-0.1c-4.6-0.7-14.8-0.4-22,2.9l-0.7,0.4l-0.2,0.7
	c-3.3,9.5-0.7,27.1,15.8,48C99.1,134,114.4,137.1,123,137.1z M70.4,69.1c6.2-2.6,14.5-2.9,18.4-2.4c2.9,5.4,4.2,13.5,3.2,19.4
	c-2.1,1.6-6.4,4.4-8.4,5.2l-1.2,0.5l0.1,1.3c0.5,3.9,3.1,8.6,8,14.5c4.9,5.9,9.1,9.4,12.6,10.7l1.3,0.4l0.7-1.1
	c1.2-1.8,4.7-5.5,6.8-7.2c6,0.1,13.7,3,18.5,6.9c-0.2,4.7-1.3,11.1-4.6,16.1c-6.8,0.7-22.9-0.4-40.1-20.5
	C70.6,93.8,68,77.5,70.4,69.1z"/>
</svg>
