<?xml version="1.0" encoding="utf-8"?>
<!-- Generator: Adobe Illustrator 21.0.0, SVG Export Plug-In . SVG Version: 6.00 Build 0)  -->
<svg version="1.1" id="Layer_1" xmlns="http://www.w3.org/2000/svg" xmlns:xlink="http://www.w3.org/1999/xlink" x="0px" y="0px"
	 viewBox="0 0 100 100" style="enable-background:new 0 0 100 100;" xml:space="preserve">
<style type="text/css">
	.st0{fill:#FFFFFF;}
</style>
<path class="st0" d="M100,51.3c0-0.4,0-1-0.3-1.4L87.6,15.5c-0.6-1.7-2.3-2.9-4-2.9H16.4c-1.9,0-3.4,1.1-4,2.9L0.3,50
	C0.1,50.5,0,51,0,51.5l0,0v31.1c0,2.4,1.9,4.3,4.3,4.3h91.4c2.4,0,4.3-1.9,4.3-4.3V51.3L100,51.3z M19.6,21.2h61l9.1,26H65
	c-2.4,0-4.3,1.9-4.3,4.3v7.4H39.3v-7.4c0-2.4-1.9-4.3-4.3-4.3H10.3L19.6,21.2z M8.6,78.3V55.6h22.1v3.3c0,4.6,3.7,8.3,8.3,8.3h22
	c4.6,0,8.3-3.7,8.3-8.3v-3.3h22.1v22.7H8.6z"/>
</svg>
