<?xml version="1.0" encoding="utf-8"?>
<!-- Generator: Adobe Illustrator 21.0.0, SVG Export Plug-In . SVG Version: 6.00 Build 0)  -->
<svg version="1.1" id="Layer_1" xmlns="http://www.w3.org/2000/svg" xmlns:xlink="http://www.w3.org/1999/xlink" x="0px" y="0px"
	 viewBox="0 0 200 200" style="enable-background:new 0 0 200 200;" xml:space="preserve">
<style type="text/css">
	.st0{fill:#FFFFFF;}
	.st1{fill:#151515;}
</style>
<g>
	<circle class="st0" cx="100" cy="100" r="100"/>
</g>
<path class="st1" d="M138.1,101.2c0-0.3,0-0.7-0.2-1.1l-9.2-26.2c-0.4-1.3-1.8-2.2-3.1-2.2H74.4c-1.5,0-2.6,0.8-3.1,2.2l-9.2,26.3
	c-0.1,0.4-0.2,0.7-0.2,1.2l0,0V125c0,1.8,1.5,3.3,3.3,3.3h69.7c1.8,0,3.3-1.5,3.3-3.3L138.1,101.2L138.1,101.2z M76.8,78.3h46.4
	l7,19.8h-18.8c-1.8,0-3.3,1.5-3.3,3.3v5.6H91.8v-5.6c0-1.8-1.5-3.3-3.3-3.3H69.7L76.8,78.3z M68.4,121.8v-17.3h16.8v2.5
	c0,3.5,2.8,6.3,6.3,6.3h16.8c3.5,0,6.3-2.8,6.3-6.3v-2.5h16.8v17.3H68.4z"/>
</svg>
