<?xml version="1.0" encoding="utf-8"?>
<!-- Generator: Adobe Illustrator 21.0.0, SVG Export Plug-In . SVG Version: 6.00 Build 0)  -->
<svg version="1.1" id="Layer_1" xmlns="http://www.w3.org/2000/svg" xmlns:xlink="http://www.w3.org/1999/xlink" x="0px" y="0px"
	 viewBox="0 0 100 100" style="enable-background:new 0 0 100 100;" xml:space="preserve">
<style type="text/css">
	.st0{fill:#FFFFFF;}
</style>
<g>
	<g>
		<path class="st0" d="M50.4,100l-2.2-3.4C47,94.8,16.4,51.9,16.4,34c0-18.7,15.3-34,34-34s34,15.3,34,34
			c0,17.9-30.2,60.8-31.7,62.7L50.4,100z M50.4,6C34.7,6,22,18.7,22,34.3c0,12.3,18.7,42.2,28.4,56.3c9.7-14.2,28.4-44,28.4-56.3
			C78.7,18.7,66.1,6,50.4,6z"/>
	</g>
	<g>
		<path class="st0" d="M50.4,47.4c-8.6,0-15.3-6.7-15.3-15.3s6.7-15.3,15.3-15.3s15.3,6.7,15.3,15.3S59,47.4,50.4,47.4z M50.4,22.4
			c-5.2,0-9.7,4.5-9.7,9.7s4.5,9.7,9.7,9.7s9.7-4.5,9.7-9.7C60.1,26.9,55.6,22.4,50.4,22.4z"/>
	</g>
</g>
</svg>
