<?xml version="1.0" encoding="utf-8"?>
<!-- Generator: Adobe Illustrator 21.0.0, SVG Export Plug-In . SVG Version: 6.00 Build 0)  -->
<svg version="1.1" id="Layer_1" xmlns="http://www.w3.org/2000/svg" xmlns:xlink="http://www.w3.org/1999/xlink" x="0px" y="0px"
	 viewBox="0 0 200 200" style="enable-background:new 0 0 200 200;" xml:space="preserve">
<style type="text/css">
	.st0{fill:#FFFFFF;}
	.st1{fill:#151515;stroke:#151515;stroke-width:3;stroke-miterlimit:10;}
</style>
<g>
	<circle class="st0" cx="100" cy="100" r="100"/>
</g>
<g>
	<g>
		<path class="st1" d="M100,143.8l-1.9-2.9c-1-1.6-27.9-39.1-27.9-54.8c0-16.4,13.4-29.8,29.8-29.8s29.8,13.4,29.8,29.8
			c0,15.7-26.4,53.2-27.8,54.9L100,143.8z M100,61.4c-13.7,0-24.8,11.1-24.8,24.7c0,10.8,16.3,37,24.8,49.3
			c8.5-12.5,24.8-38.6,24.8-49.3C124.7,72.6,113.7,61.4,100,61.4z"/>
	</g>
	<g>
		<path class="st1" d="M100,97.7c-7.5,0-13.4-5.9-13.4-13.4S92.5,71,100,71c7.5,0,13.4,5.9,13.4,13.4S107.5,97.7,100,97.7z
			 M100,75.8c-4.5,0-8.5,4-8.5,8.5s4,8.5,8.5,8.5c4.5,0,8.5-4,8.5-8.5C108.4,79.8,104.5,75.8,100,75.8z"/>
	</g>
</g>
</svg>
